ply
format ascii 1.0
element vertex 216
property float x
property float y
property float z
property float intensity
end_header
-1.24449 0.938215 -0.0115361 0
-1.30736 0.955756 -0.00961707 0
-1.33656 0.966479 -0.010481 0
-1.39329 0.987011 -0.0141669 0
-1.38098 0.981431 -0.0101936 0
-1.41536 1.00159 -0.0107184 0
-1.44992 1.00922 -0.0114081 0
-1.51156 1.04103 -0.0114242 0
-1.5694 1.07798 -0.0111756 0
-1.93694 1.24849 -0.0127249 0
-1.95044 1.221 -0.0117154 0
-1.95594 1.21229 -0.012884 0
-1.86423 1.10168 -0.0148036 0
-1.86328 1.09739 -0.0113865 0
-1.85181 1.06823 -0.0143361 0
-1.85048 1.06442 -0.0105274 0
-1.76796 0.855844 -0.0144086 0
-1.76397 0.836659 -0.0142464 0
-1.76309 0.819753 -0.00990788 0
-1.77581 0.76754 -0.00939045 0
-1.7832 0.734437 -0.00942053 0
-1.80775 0.675965 -0.0137395 0
-1.83125 0.636833 -0.00888297 0
-1.86763 0.574061 -0.00773046 0
-1.95314 0.457402 -0.00463204 0
-1.99847 0.401122 -0.00386897 0
-2.02753 0.366891 -0.00288284 0
-2.04803 0.345437 -0.00278146 0
-2.08034 0.310629 -0.00216278 0
-2.10293 0.286564 -0.00223809 0
-2.18064 0.209554 -0.00108482 0
-2.20792 0.181081 -0.00128674 0
-2.23659 0.152701 -0.0016021 0
-2.25722 0.131035 0.00142225 0
-2.36302 0.0167573 0.00064951 0
-2.38531 -0.00476673 0.0005909 0
-1.83325 1.02134 -0.0115274 0
-2.41938 -0.0417077 0.00150237 0
-1.81027 0.96864 -0.0107335 0
-2.43963 -0.0626448 0.00291213 0
-2.49024 -0.120365 0.000187735 0
-2.50989 -0.14323 -0.00118754 0
-2.5369 -0.174058 0.00129496 0
-1.77887 0.760484 -0.0143969 0
-2.62262 -0.290548 0.00229845 0
-2.64658 -0.320394 -0.00133444 0
-1.27707 0.94931 -0.0108016 0
-1.80336 0.686053 -0.0140366 0
-2.66446 -0.355564 0.00207166 0
-2.69794 -0.416079 0.0026243 0
-2.77623 -0.591682 0.000659269 0
-2.78768 -0.622261 -0.00130452 0
-2.84415 -0.801598 0.00433393 0
-2.84858 -0.832741 0.00176999 0
-2.85103 -0.878769 -0.000732603 0
-2.31214 0.0723758 0.000203962 0
-2.85319 -0.978669 -0.000875292 0
-2.3345 0.0489724 0.00020994 0
-2.85205 -1.00511 -0.000169336 0
-2.8512 -1.03762 -0.00152663 0
-2.84509 -1.08803 -0.00153292 0
-2.83446 -1.13925 -0.00230925 0
-2.8245 -1.1905 -0.00269884 0
-2.81443 -1.24004 -0.00356283 0
-1.0709 -2.73077 -0.0142302 0
-2.72828 -0.481453 0.00160648 0
-1.21364 -2.61471 -0.00708051 0
-1.04411 -2.7603 -0.015391 0
-2.0183 -1.82088 -0.00390905 0
-1.99313 -1.84212 -0.0049263 0
-2.74662 -0.521511 0.000709704 0
0.378053 -2.15063 -0.00204773 0
-1.97796 0.427407 -0.00536877 0
-0.770462 -2.69205 -0.0112062 0
-1.59246 -2.2548 -0.00988417 0
0.425703 -2.13459 -0.00404614 0
0.456634 -2.1255 -0.00331538 0
-1.93122 0.485672 -0.00591992 0
-1.70066 -2.1409 -0.00958475 0
-0.623896 -2.61179 -0.00741948 0
-2.75324 -1.47625 -0.00222759 0
-1.02777 -2.77075 -0.0129317 0
-0.526202 -2.55714 -0.00597108 0
-2.84014 -0.767069 0.00102654 0
-2.57573 -1.5385 -0.000274956 0
-1.31967 -2.53479 -0.00455755 0
-2.80314 -0.656181 -0.000427586 0
-0.938616 -2.77206 -0.0132405 0
-0.486743 -2.53512 -0.00728989 0
-2.81855 -0.688978 0.00157712 0
-0.970373 -2.8313 -0.0149703 0
-1.15916 -2.65521 -0.0137166 0
-1.30191 -2.54856 -0.00673385 0
-2.20255 -1.70568 -0.00193914 0
-2.53163 -1.55492 -0.00100494 0
-0.948644 -2.85683 -0.0129391 0
-0.910777 -2.75709 -0.012592 0
-0.435597 -2.50668 -0.00678202 0
-2.46094 -0.0884702 0.000335281 0
-1.41703 -2.44305 -0.0118162 0
-1.27518 -2.56894 -0.00322051 0
-2.55726 -0.201364 0.000420018 0
-2.04881 -1.79911 -0.00401724 0
0.181885 -2.22413 -0.00190536 0
-1.1044 -2.70022 -0.0127307 0
0.230529 -2.20793 -0.00194782 0
0.279534 -2.18877 -0.00127264 0
-2.71434 -0.452637 0.000193987 0
0.448043 -2.1246 0.000149933 0
-1.8144 0.667321 -0.0106194 0
-1.87999 -1.94968 -0.00670281 0
-2.75965 -0.550862 0.00107097 0
0.328766 -2.16956 -0.0024666 0
0.458692 -2.12154 -0.00335503 0
-1.85992 -1.97127 -0.00519354 0
-1.8247 -2.00674 -0.00547248 0
-0.488349 -2.53573 -0.00962554 0
-0.00793993 -2.31619 -0.00095634 0
-0.535857 -2.56312 -0.0102062 0
-0.0553819 -2.33982 -0.0013898 0
-1.84843 0.603121 -0.00868515 0
-0.566505 -2.5817 -0.0103843 0
-0.100579 -2.36098 -0.00100159 0
-2.26468 -1.66623 0.000713698 0
-0.588392 -2.5931 -0.00949278 0
-0.115675 -2.37027 -0.000396333 0
-2.23543 -1.68702 0.000665628 0
-1.88707 0.542253 -0.00749489 0
-0.628404 -2.61444 -0.0103527 0
-0.152937 -2.3852 -0.000834964 0
-2.80377 -1.292 -0.00348909 0
-1.21159 -2.61544 -0.011558 0
-1.3717 -2.48964 -0.00617885 0
-1.91067 0.511128 -0.00650644 0
-0.673131 -2.64056 -0.0111944 0
-1.7287 -2.11009 -0.00969413 0
-0.198297 -2.40747 -0.000360874 0
-1.24494 -2.59081 -0.0107215 0
-0.720472 -2.66565 -0.0103838 0
-1.74712 -2.0886 -0.00916434 0
-0.245376 -2.43067 -0.00393584 0
0.0820371 -2.27219 -0.00192028 0
-2.77414 -1.44143 -0.00216458 0
-0.409176 -2.49377 -0.0121561 0
-1.51565 -2.33226 -0.00968593 0
-1.65828 -2.18733 -0.00521442 0
-0.328715 -2.47158 -0.00560958 0
-0.747641 -2.68045 -0.0123798 0
-0.292595 -2.4536 -0.00427333 0
-0.334239 -2.47587 -0.00841381 0
-1.12699 -2.67953 -0.0130221 0
-0.326846 -2.47032 -0.00863547 0
0.133333 -2.24708 -0.00199045 0
-2.5836 -0.234618 0.000436043 0
-2.08376 -1.78336 -0.00362707 0
-0.81236 -2.71768 -0.0140386 0
-0.353108 -2.48427 -0.00641265 0
-1.80273 -2.02842 -0.00391926 0
0.0398433 -2.29322 -0.000734113 0
-0.453556 -2.51682 -0.0090266 0
-1.53898 -2.30865 -0.00968047 0
-1.6782 -2.16692 -0.00699624 0
-0.38973 -2.48594 -0.00628036 0
-0.386665 -2.49351 -0.00710781 0
-0.86194 -2.73992 -0.0134923 0
-1.25107 -2.58402 -0.0107302 0
-1.41452 -2.44656 -0.00757486 0
-2.33178 -1.63562 0.000144151 0
-1.77117 0.866188 -0.00995415 0
-1.3381 -2.51749 -0.00857675 0
-2.40313 -1.6063 -0.00233065 0
-1.78543 0.918496 -0.01071 0
-1.35808 -2.5007 -0.0107996 0
-2.43305 -1.59323 -0.00256563 0
-1.38305 -2.47667 -0.0130498 0
-2.12433 0.26407 0.000555462 0
-2.47312 -1.57763 -0.00144016 0
-1.44337 -2.41219 -0.00886025 0
-2.28971 0.0964354 0.000282825 0
-2.85299 -0.932448 -0.0018133 0
-1.57353 -2.27497 -0.00692683 0
-1.46001 -2.39302 -0.0122065 0
-1.59545 -2.25152 -0.00730514 0
-1.49217 -2.35657 -0.0108219 0
-1.62923 -2.21805 -0.0058372 0
-1.57334 -2.27401 -0.00975736 0
-1.61413 -2.2334 -0.0097138 0
-0.716763 -2.66532 -0.00750909 0
-1.74628 -2.08997 -0.00586521 0
-1.64799 -2.19737 -0.0106345 0
-1.78016 -2.05278 -0.00518 0
-1.66832 -2.17642 -0.00984365 0
-1.72461 -2.11533 -0.00664916 0
-1.7699 -2.06371 -0.00929938 0
-1.79571 0.7082 -0.00996386 0
-1.90583 -1.92455 -0.0040766 0
-1.93675 -1.89323 -0.00550054 0
-1.95755 -1.87322 -0.00414575 0
-2.10967 -1.76135 -0.00216467 0
-2.13982 -1.74198 -0.00294492 0
-2.17121 -1.72308 -0.0014367 0
-2.29632 -1.65289 0.000112696 0
-2.36188 -1.62203 -0.00224109 0
-2.16052 0.229734 -0.000144699 0
-2.50411 -1.56661 -0.00386544 0
-2.8284 -0.717606 3.49097e-05 0
-0.992934 -2.82127 -0.013147 0
-2.60557 -1.52928 -0.00301864 0
-0.601378 -2.59968 -0.00760092 0
-2.64551 -1.515 -0.00181231 0
-2.70715 -1.4931 -0.00332515 0
0.10407 -2.26127 -0.00271014 0
-0.403546 -2.49047 -0.0095826 0
-2.78485 -1.39517 -0.00350324 0
-1.18456 -2.63427 -0.0131978 0
-2.79438 -1.34501 -0.00331719 0
